{"title":"Stewart Lees Comedy Vehicle Series 4 HDTV Xvid","uid":15090460,"size":1412534816,"categoryP":"video","categoryS":"tv_shows","magnet":"?xt=urn:btih:84bfdf8d9c242d8b65e3164fa19352b5ce0de320&amp;dn=Stewart+Lees+Comedy+Vehicle+Series+4+HDTV+Xvid&amp;tr=udp%3A%2F%2Ftracker.leechers-paradise.org%3A6969&amp;tr=udp%3A%2F%2Fzer0day.ch%3A1337&amp;tr=udp%3A%2F%2Fopen.demonii.com%3A1337&amp;tr=udp%3A%2F%2Ftracker.coppersurfer.tk%3A6969&amp;tr=udp%3A%2F%2Fexodus.desync.com%3A6969","seeders":1,"leechers":0,"uploader":"Pongydog","files":6,"time":1466900819,"description":"Series 4 of Stewart Lee's Comedy Vehicle.\r\n\r\n\r\n \nhttps://en.wikipedia.org/wiki/Stewart_Lee%27s_Comedy_Vehicle\r\n\r\nOriginally uploaded to kickass torrents.\r\n\r\nsample tech info:\r\n\r\nGeneral\r\nComplete name                            : C:Usersuser1VideosStewart Lees Comedy Vehicle Series 4 HDTV Xvid1 Wealth.avi\r\nFormat                                   : AVI\r\nFormat/Info                              : Audio Video Interleave\r\nFile size                                : 225 MiB\r\nDuration                                 : 29mn 16s\r\nOverall bit rate mode                    : Variable\r\nOverall bit rate                         : 1 073 Kbps\r\nWriting application                      : MEncoder sherpya-r35968+g39eaacf-4.6\r\nWriting library                          : MPlayer\r\n\r\nVideo\r\nID                                       : 0\r\nFormat                                   : MPEG-4 Visual\r\nFormat profile                           : Advanced   \r\nFormat settings, BVOP                    : 2\r\nFormat settings, QPel                    : No\r\nFormat settings, GMC                     : No warppoints\r\nFormat settings, Matrix                  : Default (H.263)\r\nCodec ID                                 : XVID\r\nCodec ID/Hint                            : XviD\r\nDuration                                 : 29mn 16s\r\nBit rate                                 : 963 Kbps\r\nWidth                                    : 720 pixels\r\nHeight                                   : 404 pixels\r\nDisplay aspect ratio                     : 16:9\r\nOriginal display aspect ratio            : 16:9\r\nFrame rate                               : 25.000 fps\r\nColor space                              : YUV\r\nChroma subsampling                       : 4:2:0\r\nBit depth                                : 8 bits\r\nScan type                                : Progressive\r\nCompression mode                         : Lossy\r\nBits/(Pixel*Frame)                       : 0.132\r\nStream size                              : 202 MiB (90%)\r\nWriting library                          : XviD 64\r\n\r\nAudio\r\nID                                       : 1\r\nFormat                                   : MPEG Audio\r\nFormat version                           : Version 1\r\nFormat profile                           : Layer 3\r\nMode                                     : Joint stereo\r\nMode extension                           : MS Stereo\r\nCodec ID                                 : 55\r\nCodec ID/Hint                            : MP3\r\nDuration                                 : 29mn 15s\r\nBit rate mode                            : Variable\r\nBit rate                                 : 96.0 Kbps\r\nChannel(s)                               : 2 channels\r\nSampling rate                            : 48.0 KHz\r\nCompression mode                         : Lossy\r\nStream size                              : 20.3 MiB (9%)\r\nAlignment                                : Aligned on interleaves\r\nInterleave, duration                     : 24 ms (0.60 video frame)\r\nInterleave, preload duration             : 390 ms","torrent":{"xt":"urn:btih:84bfdf8d9c242d8b65e3164fa19352b5ce0de320","amp;dn":"Stewart+Lees+Comedy+Vehicle+Series+4+HDTV+Xvid","amp;tr":["udp%3A%2F%2Ftracker.leechers-paradise.org%3A6969","udp%3A%2F%2Fzer0day.ch%3A1337","udp%3A%2F%2Fopen.demonii.com%3A1337","udp%3A%2F%2Ftracker.coppersurfer.tk%3A6969","udp%3A%2F%2Fexodus.desync.com%3A6969"],"infoHash":"84bfdf8d9c242d8b65e3164fa19352b5ce0de320","infoHashBuffer":{"type":"Buffer","data":[132,191,223,141,156,36,45,139,101,227,22,79,161,147,82,181,206,13,227,32]},"announce":[],"urlList":[]}}